<svg width="16" height="16" viewBox="0 0 16 16" fill="none" xmlns="http://www.w3.org/2000/svg">
<path d="M14.6519 15.5L9.31761 10.25C8.89425 10.5833 8.40738 10.8472 7.85702 11.0417C7.30665 11.2361 6.721 11.3333 6.10007 11.3333C4.56186 11.3333 3.26003 10.809 2.19457 9.76042C1.12912 8.71181 0.59639 7.43056 0.59639 5.91667C0.59639 4.40278 1.12912 3.12153 2.19457 2.07292C3.26003 1.02431 4.56186 0.5 6.10007 0.5C7.63828 0.5 8.94011 1.02431 10.0056 2.07292C11.071 3.12153 11.6038 4.40278 11.6038 5.91667C11.6038 6.52778 11.505 7.10417 11.3074 7.64583C11.1098 8.1875 10.8417 8.66667 10.503 9.08333L15.8374 14.3333L14.6519 15.5ZM6.10007 9.66667C7.15847 9.66667 8.05811 9.30208 8.79899 8.57292C9.53987 7.84375 9.91031 6.95833 9.91031 5.91667C9.91031 4.875 9.53987 3.98958 8.79899 3.26042C8.05811 2.53125 7.15847 2.16667 6.10007 2.16667C5.04167 2.16667 4.14203 2.53125 3.40115 3.26042C2.66027 3.98958 2.28983 4.875 2.28983 5.91667C2.28983 6.95833 2.66027 7.84375 3.40115 8.57292C4.14203 9.30208 5.04167 9.66667 6.10007 9.66667Z" fill="black" fill-opacity="0.5"/>
</svg>
